<svg width="21" height="85" viewBox="0 0 21 85" fill="none" xmlns="http://www.w3.org/2000/svg">
<g clip-path="url(#clip0_1_498)">
<path d="M17.3157 20.5808C17.3157 20.7284 17.2664 20.7284 17.2664 20.7776L11.0149 27.0776C10.9656 27.1269 10.9656 27.1269 10.818 27.1269C10.6703 27.1269 10.6703 27.0776 10.6211 27.0776L9.88268 26.3394C9.83346 26.2901 9.83345 26.2901 9.83345 26.1425C9.83345 25.9948 9.88268 25.9948 9.88268 25.9456L14.4114 21.4175H3.38498C3.33575 21.4175 3.28653 21.4175 3.28653 21.4175C3.2373 21.3683 3.2373 21.319 3.2373 21.2206V19.9901C3.2373 19.8917 3.28653 19.7933 3.28653 19.744C3.28653 19.744 3.33575 19.744 3.38498 19.744H14.4114L9.88268 15.2159C9.83346 15.1667 9.83345 15.1667 9.83345 15.019C9.83345 14.8714 9.88268 14.8714 9.88268 14.8222L10.6211 14.0839C10.6703 14.0347 10.6703 14.0347 10.818 14.0347C10.9656 14.0347 10.9656 14.0839 11.0149 14.0839L17.2664 20.3839C17.2664 20.4331 17.3157 20.4331 17.3157 20.5808Z" fill="black" fill-opacity="0.2"/>
</g>
<defs>
<clipPath id="clip0_1_498">
<rect width="19.69" height="84" fill="white" transform="translate(0.530029 0.630005)"/>
</clipPath>
</defs>
</svg>
