<svg width="21" height="85" viewBox="0 0 21 85" fill="none" xmlns="http://www.w3.org/2000/svg">
<g clip-path="url(#clip0_1_513)">
<path d="M17.5556 20.5808C17.5556 20.7284 17.5064 20.7284 17.5064 20.7777L11.2548 27.0777C11.2056 27.1269 11.2056 27.1269 11.0579 27.1269C10.9103 27.1269 10.9103 27.0777 10.861 27.0777L10.1227 26.3394C10.0734 26.2902 10.0734 26.2902 10.0734 26.1425C10.0734 25.9949 10.1227 25.9949 10.1227 25.9456L14.6514 21.4175H3.62497C3.57575 21.4175 3.52652 21.4175 3.52652 21.4175C3.47729 21.3683 3.47729 21.3191 3.47729 21.2206V19.9902C3.47729 19.8917 3.52652 19.7933 3.52652 19.7441C3.52652 19.7441 3.57575 19.7441 3.62497 19.7441H14.6514L10.1227 15.2159C10.0734 15.1667 10.0734 15.1667 10.0734 15.0191C10.0734 14.8714 10.1227 14.8714 10.1227 14.8222L10.861 14.0839C10.9103 14.0347 10.9103 14.0347 11.0579 14.0347C11.2056 14.0347 11.2056 14.0839 11.2548 14.0839L17.5064 20.3839C17.5064 20.4331 17.5556 20.4331 17.5556 20.5808Z" fill="black" fill-opacity="0.2"/>
</g>
<defs>
<clipPath id="clip0_1_513">
<rect width="19.69" height="84" fill="white" transform="translate(0.77002 0.630005)"/>
</clipPath>
</defs>
</svg>
