<svg width="20" height="85" viewBox="0 0 20 85" fill="none" xmlns="http://www.w3.org/2000/svg">
<g clip-path="url(#clip0_1_544)">
<path d="M16.7857 20.5807C16.7857 20.7284 16.7365 20.7284 16.7365 20.7776L10.4849 27.0776C10.4357 27.1268 10.4357 27.1268 10.288 27.1268C10.1404 27.1268 10.1404 27.0776 10.0911 27.0776L9.35277 26.3393C9.30355 26.2901 9.30355 26.2901 9.30355 26.1424C9.30355 25.9948 9.35277 25.9948 9.35277 25.9455L13.8815 21.4174H2.85507C2.80585 21.4174 2.75662 21.4174 2.75662 21.4174C2.7074 21.3682 2.7074 21.319 2.7074 21.2205V19.9901C2.7074 19.8916 2.75662 19.7932 2.75662 19.744C2.75662 19.744 2.80585 19.744 2.85507 19.744H13.8815L9.35277 15.2159C9.30355 15.1666 9.30355 15.1666 9.30355 15.019C9.30355 14.8713 9.35277 14.8713 9.35277 14.8221L10.0911 14.0838C10.1404 14.0346 10.1404 14.0346 10.288 14.0346C10.4357 14.0346 10.4357 14.0838 10.4849 14.0838L16.7365 20.3838C16.7365 20.433 16.7857 20.433 16.7857 20.5807Z" fill="black" fill-opacity="0.2"/>
</g>
<defs>
<clipPath id="clip0_1_544">
<rect width="19.69" height="84" fill="white" transform="translate(0 0.629944)"/>
</clipPath>
</defs>
</svg>
