<svg width="21" height="85" viewBox="0 0 21 85" fill="none" xmlns="http://www.w3.org/2000/svg">
<g clip-path="url(#clip0_1_561)">
<path d="M17.5657 20.5806C17.5657 20.7283 17.5164 20.7283 17.5164 20.7775L11.2649 27.0775C11.2156 27.1267 11.2156 27.1267 11.068 27.1267C10.9203 27.1267 10.9203 27.0775 10.8711 27.0775L10.1327 26.3392C10.0835 26.29 10.0835 26.29 10.0835 26.1424C10.0835 25.9947 10.1327 25.9947 10.1327 25.9455L14.6614 21.4174H3.63498C3.58575 21.4174 3.53653 21.4174 3.53653 21.4174C3.4873 21.3681 3.4873 21.3189 3.4873 21.2205V19.99C3.4873 19.8916 3.53653 19.7931 3.53653 19.7439C3.53653 19.7439 3.58575 19.7439 3.63498 19.7439H14.6614L10.1327 15.2158C10.0835 15.1666 10.0835 15.1666 10.0835 15.0189C10.0835 14.8713 10.1327 14.8713 10.1327 14.822L10.8711 14.0838C10.9203 14.0345 10.9203 14.0345 11.068 14.0345C11.2156 14.0345 11.2156 14.0838 11.2649 14.0838L17.5164 20.3838C17.5164 20.433 17.5657 20.433 17.5657 20.5806Z" fill="black" fill-opacity="0.2"/>
</g>
<defs>
<clipPath id="clip0_1_561">
<rect width="19.69" height="84" fill="white" transform="translate(0.780029 0.629883)"/>
</clipPath>
</defs>
</svg>
